<?xml version="1.0" encoding="UTF-8"?><svg version="1.2" baseProfile="tiny-ps" id="uuid-b4ed25cc-d6f6-443a-9982-bc2e7254d283" xmlns="http://www.w3.org/2000/svg" viewBox="0 0 300 300">
<title>LAGOM Network</title><path d="M0,150v150h300V0H0v150Z" fill="#ffefed"/><path d="M0,150v150h300V0H0v150ZM232,45.5l12.5,12.5-30,30-30,30h60.5v35h-54v.7c0,.5,12,12.8,26.7,27.5l26.8,26.8-12.5,12.5-12.5,12.5-30.2-30.2-30.3-30.3v60.5h-35V38h35l.2,27.2.3,27.3,29.5-29.7c16.2-16.3,29.7-29.7,30-29.7.3-.1,6.1,5.5,13,12.4ZM72,248.5v6.5h7v4h-11v-17h4v6.5ZM96.5,252.9c3,6,3,6.1.5,6.1h-2l-2.4-4.7-2.4-4.8-2.3,4.8-2.3,4.7h-4.6l3.1-6.2c1.8-3.5,3.9-7.3,4.7-8.6l1.5-2.3,1.8,3c1,1.7,3,5.3,4.4,8ZM114,243l1.9,1-.5,1.5-.6,1.5-2.4-.6c-1.3-.3-3.5-.3-4.9,0l-2.5.6v6.9l2.1,1.1,2.1,1.2,1.4-.6,1.4-.5v-4.1h4v6.8l-1.6.6c-.9.3-3.2.6-5.2.6l-3.7-.1-1.6-1.2c-.9-.7-2.1-2.2-2.8-3.5l-1.2-2.3.6-2.9.7-3,2.5-2,2.6-2h2.9c1.6,0,3.8.5,4.8,1ZM134.5,244.5l2.5,2.4v7.2l-2.5,2.4-2.4,2.5h-3.5c-1.9,0-4.2-.3-5.1-.6-1.9-.8-4.5-5.5-4.5-8.4v-2.2l2.9-2.9,2.9-2.9h7.3l2.4,2.5ZM153.1,246l3.9-4.5v17.5h-4v-7.3l-2,1.8-2,1.8-1.8-1.6c-2.7-2.4-3.2-2.1-3.2,1.8v3.5h-4v-17.4l4.6,4.4,4.6,4.5,3.9-4.5ZM120.8,266.7l2.2,2.4v5.8l-2.4,2.8-2.4,2.8h-8.4l-2.4-2.8-2.4-2.8v-2.5c0-1.4.5-3.4,1.1-4.5l1.1-2.1,3.1-1.3,3.2-1.4,2.5.6,2.5.5,2.3,2.5ZM38.2,268.1l4.8,4v-8.1h4v17.3l-4.5-4.2c-2.4-2.2-4.9-4.1-5.5-4.1h-1v7h-4v-16h.7c.4,0,2.8,1.8,5.5,4.1ZM62,265.5v1.5h-7v3h7v4h-7v3h7v3h-11v-16h11v1.5ZM78,265.4v1.5l-2.2.3-2.3.3-.3,6.2-.3,6.3h-3.9v-13h-4v-3h13v1.4ZM86,267.5c.6,1.9,1.5,3.5,1.9,3.5s1.6-1.7,2.6-3.8l1.8-3.7,1.6,3.7c.9,2.1,1.9,3.8,2.3,3.8.3,0,1.2-1.6,1.8-3.5l1.2-3.5h4.7l-2.9,7c-1.6,3.8-3.3,7.6-3.7,8.5l-.9,1.6-1.9-4c-1-2.3-2.1-4.1-2.5-4.1-.3,0-1.5,1.9-2.6,4.1l-2,4.1-3.6-8.6-3.6-8.6h4.6l1.2,3.5ZM138.4,265.6l1.6,1.5v5l-1.5.5-1.6.6,2,3.4,2,3.4h-4.8l-1.6-3.1-1.6-3.1,1.6-1.9,1.7-1.8-.5-1.6-.6-1.5h-5.1v13h-4v-16h10.9l1.5,1.6ZM148,272v8h-4v-16h4v8ZM158,264.7c0,.3-1.1,2.1-2.5,3.8l-2.4,3.3,2.9,4.1,3,4.1h-5l-2.6-4-2.7-4,2.7-4,2.6-4h2c1.1,0,2,.3,2,.7ZM124,248l-1.1,2.1.6,1.9c.4,1.1,1.5,2.5,2.6,3.1l2,1,2.5-1.6,2.4-1.5v-1.6c0-.8-.5-2.4-1-3.5l-1.1-1.9h-5.8l-1.1,2ZM110.6,269.2c-2.1,2.9-2,4.1.4,6.3l1.9,1.7,2.5-.6,2.6-.6.6-2.6.6-2.5-1.7-1.9-1.8-2h-3.6l-1.5,2.2Z" fill="#ffc5c3"/><path d="M0,150v150h300V0H0v150ZM232,45.5l12.5,12.5-30,30-30,30h60.5l-.2,17.7-.3,17.8-27,.3-27,.2,27,27,27,27-12.5,12.5-12.5,12.5-29.5-29.5c-16.2-16.2-29.8-29.5-30.3-29.5h-.7v59h-35V38h35v54.5l29.7-29.8c16.4-16.3,30-29.7,30.3-29.7s6.1,5.6,13,12.5ZM72,248.5v6.5h7v4h-11v-17h4v6.5ZM95,250c2.2,4.4,4,8.2,4,8.5s-1.1.5-2.3.5h-2.4l-1.8-4c-1-2.2-2.1-4-2.5-4s-1.5,1.8-2.5,4l-1.8,4h-4.7l4.2-8.5c2.3-4.7,4.6-8.5,5-8.5s2.6,3.6,4.8,8ZM114.9,242.9l1.4.9-.6,1.5-.6,1.6-3.5-.6-3.6-.6-1.5,1.3-1.5,1.2v2.2c0,2.8,1.8,4.6,4.7,4.6h2.3v-4h5v5.9l-1.9,1.1c-1.1.5-3.8,1-6.1,1h-4.1l-2.4-2.5-2.5-2.4v-2.6c0-3,1.6-6.5,3.9-8.2l1.6-1.2,4-.1c2.2,0,4.6.4,5.4.9ZM134.5,244.5l2.5,2.4v7.5l-2.2,2.3-2.1,2.3h-8.8l-2.4-2.5-2.5-2.4v-7.2l2.5-2.4,2.4-2.5h8.2l2.4,2.5ZM145.1,246.1l3.2,4,4.1-4c2.3-2.3,4.5-4.1,4.9-4.1h.7v17h-5v-7.3l-2.4,2.2-2.4,2.2-1.6-2.2-1.6-2.3v7.4h-5v-17h.9c.5,0,2.4,1.8,4.2,4.1ZM38.4,267.9c1.7,1.7,3.3,3.1,3.8,3.1h.8v-7h4v17.2l-4.9-4.1-5-4.2-.3,3.8-.3,3.8-2.2.3-2.3.3v-18.2l1.8,1c.9.5,3,2.3,4.6,4ZM118.3,264.2c1.2.6,2.7,1.8,3.4,2.7l1.2,1.6.1,3.7v3.8l-2,2c-1.1,1.1-3.1,2.2-4.5,2.6l-2.5.6-2.5-.6c-1.3-.3-3.4-1.6-4.5-2.8l-2-2.2v-6.2l1.6-2.2c2.7-3.9,7.7-5.2,11.7-3ZM63,265.4v1.5l-3.7.3-3.6.3-.5,1.2-.4,1.3h7.2v3.9l-3.2.3-3.3.3v2l3.8.3,3.8.3-.3,1.7-.3,1.7-5.8.3-5.7.3v-17.1h12v1.4ZM78,266v2h-3.9l-.3,6.2-.3,6.3h-4l-.3-6.2-.3-6.2-2.2-.3-2.2-.3-.3-1.8-.3-1.7h14.1v2ZM86.5,268l1.2,3.5,1.9-3.8c1-2,2.1-3.7,2.4-3.7s1.4,1.7,2.4,3.7l1.8,3.8,1.5-3.8,1.5-3.7h5l-.5,1.2c-.3.7-1.7,4.2-3.2,7.8s-3,6.9-3.4,7.3l-.8.8-1.8-4.1c-1-2.2-2.1-4-2.4-4s-1.4,1.9-2.5,4.3l-1.8,4.2-2.9-6c-1.5-3.3-3.2-7.3-3.8-8.8l-1-2.8,2.6.3,2.6.3,1.2,3.5ZM138.8,265.2c1.5,1.5,1.6,6,.1,7.5l-1.1,1.1,1.6,3c2,3.9,2,4.2-.4,4.2h-2l-2.4-3.8-2.4-3.7,2.1-1.7,2.1-1.6-1.3-1.6c-.7-.9-1.9-1.6-2.7-1.6h-1.3l-.3,6.7-.3,6.8-2.2.3-2.3.3v-17.1h11.6l1.2,1.2ZM148,272.6v8.5l-2.2-.3-2.3-.3-.3-8.3-.3-8.2h5.1v8.6ZM156.6,267.4c-3.2,4.2-3.2,4.3-.1,8.8s3.1,4.8.1,4.8h-2.3l-2.7-4c-3.2-4.8-3.2-5.1-.3-9.5l2.2-3.5h5.7l-2.6,3.4ZM125.1,247.4l-1.2,1.5.3,2.8.3,2.8,3,.3,2.9.4,1.3-1.8c1.7-2.3,1.6-3.9-.3-5.8-1.9-2-4.8-2-6.3-.2ZM111.8,268.1l-1.8,1v5.5l1.2,1.2c.7.7,2,1.2,2.9,1.2h1.8l1.5-2.2c2-2.9,2-3.4-.4-5.8s-2.8-2.4-5.2-.9Z" fill="#ff9a98"/><path d="M0,150v150h300V0H0v150ZM215.3,87.2l-29.8,29.8h59.5v37h-53.5l26.8,26.8,26.7,26.7-13,13-13,13-29.5-29.5-29.5-29.5v58.5h-37V38h37v53.5l29.7-29.7,29.8-29.8,12.7,12.7,12.8,12.8-29.7,29.7ZM97,253l3,6h-5.6l-2.1-4.2-2-4.3-2.2,4.3-2.1,4.2h-2.5c-1.4,0-2.5-.2-2.5-.5,0-.9,7.1-14.9,8.3-16.3l1-1.3,1.8,3.1c1,1.6,3.2,5.7,4.9,9ZM115.8,243.4c.2.3.2,1.2-.2,2.1l-.6,1.6-3.5-.7-3.5-.6-1.5,1.2-1.5,1.2v2.2c0,2.8,1.8,4.6,4.7,4.6h2.3v-5h5v7.8l-3.5,1.2-3.5,1.2-3-.7-3-.7-2-2.5-2-2.6v-6.3l1.5-2.2,1.6-2.2,3.2-.8,3.2-.9,2.9.8c1.6.5,3.1,1.1,3.4,1.3ZM135,244.6l2.4,2.3v7.2l-2.7,2.7-2.7,2.7h-7.9l-2.5-2.4-2.6-2.4v-7.4l2-2.6,2-2.6,2.3-.4c3.6-.6,7,.4,9.7,2.9ZM72,248.5v6.5h8v4.1l-6.2-.3-6.3-.3-.3-6.9c-.2-3.8-.1-7.5.2-8.3l.5-1.3h4.1v6.5ZM145.2,245.7l3.8,3.7,3.8-3.7c2.1-2,4.1-3.7,4.5-3.7h.7v17h-5v-6.3l-2,1.8-2,1.8-2-1.8-2-1.8v6.3h-5v-17h.7c.4,0,2.4,1.7,4.5,3.7ZM37.9,267.2l4.6,4.3.3-4.3.3-4.3,2.2.3,2.2.3.3,8.7.3,8.8h-.9c-.5,0-3-1.8-5.6-4.1l-4.6-4.1v8.2h-5v-9c0-5,.3-9,.6-9,.4,0,2.8,1.9,5.3,4.2ZM63,265.5v2.5h-7v2h6v4h-6v3h7v4h-12v-18h12v2.5ZM78.5,265.5v2l-2.2.3-2.3.3v12.9h-5v-13h-5v-1.8c0-1,.3-2.2.7-2.6l.7-.7,6.6.3,6.5.3v2ZM86.1,266.5c1.6,4.3,2.3,4.4,3.9.5,1.6-3.8,2.5-3.8,4.6.2l1.7,3.2,1.6-3.4,1.6-3.5,2.3-.3,2.2-.3v.8c.1,1.6-6.5,17.3-7.3,17.3-.4,0-1.5-1.6-2.4-3.5s-2-3.5-2.3-3.5-1.4,1.6-2.4,3.6l-1.7,3.7-.9-.9c-1-1.1-7-15.2-7-16.5v-.9h4.9l1.2,3.5ZM119.2,264.1l2,1.1,1.3,3.1,1.3,3.2-.5,2.8-.5,2.7-2.6,2-2.5,2h-7.8l-2.4-2.5-2.5-2.4v-7.7l1.3-1.6c2.8-3.6,8.8-4.9,12.9-2.7ZM137,264.3l2.5,1.2.3,2.8.3,2.8-1.1,1.5-1.2,1.4,1.6,2.5c.9,1.3,1.6,2.9,1.6,3.5v1h-5l-2-4c-2.4-4.7-2.4-5-.5-5h1.5v-4h-4v13h-5v-18h8.5l2.5,1.3ZM148.2,267.2l.3,4.2,2.8-4.2,2.7-4.2h2.5c3.1,0,3.1.5-.1,5.1l-2.6,3.8,2.6,3.8c3.2,4.7,3.2,5.3.1,5.3h-2.5l-2.7-4.2-2.8-4.2-.3,4.2-.3,4.2h-4.9v-8.3c0-8.8.3-9.7,3.1-9.7h1.8l.3,4.2ZM125,247.4l-1.2,1.5.4,2.2.3,2.2,1.8,1.1,1.7,1.1,1.8-1.1,1.7-1.1.3-2.2.4-2.2-1.2-1.5c-.7-.7-2-1.4-3-1.4s-2.3.7-3,1.4ZM110.6,269.5c-.3.9-.6,2.5-.6,3.5v1.9l2,1.1,2,1.1,2.1-1.1,2-1.1-.3-3.2-.3-3.2-3.1-.3-3.1-.3-.7,1.6Z" fill="#ff5554"/><path d="M0,150v150h300V0H0v150ZM232.5,45l13,13-29.5,29.5-29.5,29.5h58.5v37h-53.5l27,27,27,27-12.5,12.5c-6.9,6.9-12.9,12.5-13.5,12.5-.5,0-14.2-13.2-30.2-29.2l-29.3-29.3v59.5h-37V38h37v52.5l29.2-29.3c16.1-16,29.5-29.2,29.8-29.2s6.4,5.9,13.5,13ZM72.8,248.2l.3,6.8h7l-.3,2.2-.3,2.3h-12l-.3-7.9c-.2-4.4,0-8.6.3-9.3l.5-1.4,2.2.3,2.3.3.3,6.7ZM95.5,250c2.5,4.9,4.5,9.2,4.5,9.5,0,.4-1.2.5-2.7.3l-2.8-.3-2-3.7c-1.1-2.1-2.3-3.8-2.6-3.8-.4,0-1.4,1.8-2.3,4l-1.6,4h-5v-1c0-1.6,8.4-18,9.2-18,.4,0,2.8,4,5.3,9ZM113.9,242.1c3.5,1.2,3.5,1.3,2.1,3.9l-1,1.9-2.7-1-2.6-1-1.7.6c-2.2.7-3.3,3.1-2.5,5.6l.6,1.8,1.9.6c2.6.8,4-.1,4-2.6v-1.9h5.1l-.3,4.2-.3,4.3-3.6.9-3.6.9-2.7-.7c-1.5-.4-3.5-1.5-4.6-2.6l-2-2v-8.7l2.3-2c3.7-3.4,6.5-4,11.6-2.2ZM132.9,242.5l2.8,1.4,1.3,3,1.2,3.1-.7,2.7c-.3,1.6-1.4,3.6-2.2,4.5l-1.6,1.8-3.4.6-3.3.6-3.1-1.3-3.1-1.2-1.5-3.5-1.4-3.4,1.1-3.4,1.2-3.4,2.6-1.5c3.5-1.8,6.6-1.9,10.1,0ZM152.6,245.2c2-2.3,4-4.2,4.5-4.2h.9v19h-5v-7.3l-2,1.8-2,1.8-2-1.8-2-1.8v7.3h-5v-19.4l4.5,4.4,4.6,4.5,3.5-4.3ZM37.6,266.5l4.3,3.5.3-3.2.3-3.3,2.8-.3,2.7-.3v18.1h-1.3c-.7,0-2.8-1.6-4.7-3.5s-3.8-3.5-4.2-3.5h-.8v7h-5v-9c0-5,.3-9,.6-9,.4,0,2.6,1.6,5,3.5ZM63,265.5v2.5h-7v2h6v4h-6v2h7v5.1l-6.2-.3-6.3-.3-.3-7.4c-.2-4.1-.1-8,.2-8.8l.5-1.3h12.1v2.5ZM79,265.5v2.5h-5v13h-5v-13h-5v-5h15v2.5ZM86.1,266c.6,1.6,1.4,3,1.9,3,.4,0,1.3-1.4,2-3,1.6-3.9,2.6-3.8,4.6.7l1.6,3.8,1.2-3.5,1.3-3.5,3.1-.3c1.8-.2,3.2-.2,3.2,0,0,1-7.3,17.4-8,18.2l-.9.9-1.9-4.4-1.9-4.4-2.2,4.3c-1.2,2.4-2.5,4.1-2.8,3.8-1.1-1-7.3-15.9-7.3-17.3v-1.3h5.1l1,3ZM121.1,265.9l2.9,2.9v6.2l-2.8,3.1-2.8,3.2h-8.6l-2.6-2.7-2.7-2.6v-8.2l2.8-2.4,2.8-2.4h8.1l2.9,2.9ZM139,265c2.3,2.3,2.5,3.9.9,7.4l-1.2,2.5,1.7,2.5c2.2,3.5,2.1,3.8-1.5,3.4l-3.1-.3-2.2-3.8-2.1-3.8,1.8-1c.9-.5,1.7-1.7,1.7-2.4v-1.5h-4v13h-5v-18h11l2,2ZM148,267.2v4.1l3-4.1,3-4.2h5v1.1c0,.6-1.2,2.6-2.6,4.4l-2.6,3.4,2.5,3.3c1.3,1.8,2.7,3.9,3.1,4.5l.7,1.3h-6.6l-2.7-4.3-2.8-4.2v8.5h-5v-18h5v4.2ZM125.5,247.6l-1.6,1.6.3,2.1c.2,1.1,1.1,2.5,2.1,3.1l1.7,1.1,1.8-1.1,1.7-1.1.3-2.3.4-2.4-1.8-1.3c-2.3-1.7-2.9-1.6-4.9.3ZM111.2,269.2c-2.7,2.7-.6,6.8,3.5,6.8h2.3l.6-2.5.6-2.5-1.2-1.5c-1.5-1.8-4.2-1.9-5.8-.3Z" fill="#ff2624"/></svg>