<?xml version="1.0" encoding="UTF-8"?>
<svg xmlns="http://www.w3.org/2000/svg" width="375" height="375" baseProfile="tiny" version="1.2" viewBox="0 0 375 375">
  <!-- Generator: Adobe Illustrator 29.7.1, SVG Export Plug-In . SVG Version: 2.1.1 Build 8)  -->
  <rect width="375" height="375" fill="#ff2626"/>
  <rect width="375" height="375" fill="#ff2626"/>
  <polygon points="306.03 72.28 274.05 40.3 199.35 114.99 199.35 47.48 154.13 47.48 154.13 160.21 154.13 160.22 154.13 160.22 154.13 171.77 154.13 171.77 154.13 171.77 154.13 291.69 199.35 291.69 199.35 216.99 274.05 291.69 306.03 259.71 238.51 192.19 306.03 192.19 306.03 146.97 231.33 146.97 306.03 72.28" fill="#ffeeeb"/>
  <g>
    <path d="M99.29,318.73h-7.6c-.2,0-.34-.04-.4-.11-.06-.07-.09-.2-.09-.38v-14.55c0-.28-.07-.49-.2-.62-.13-.13-.35-.2-.66-.2h-4.14c-.29,0-.5.07-.63.2s-.2.34-.2.62v19.42c0,.28.07.49.2.62s.34.2.63.2h13.08c.29,0,.49-.06.63-.2s.2-.34.2-.62v-3.58c0-.28-.07-.49-.2-.62s-.34-.2-.63-.2Z" fill="#ffeeeb"/>
    <path d="M114.91,303.88c-.33-.6-.59-1.01-.78-1.23-.19-.22-.42-.33-.69-.33s-.51.12-.72.35c-.21.23-.46.64-.75,1.22l-9.9,19.09c-.1.18-.15.35-.15.51,0,.3.23.45.7.45h4.14c.41,0,.71-.06.92-.2.2-.13.4-.39.58-.77l5.09-10.31,5.12,10.31c.18.38.38.64.58.77.2.13.5.2.89.2h4.35c.49,0,.74-.15.74-.45,0-.14-.06-.31-.18-.51l-9.93-19.09Z" fill="#ffeeeb"/>
    <path d="M145.45,313.2h-4.17c-.29,0-.5.07-.63.21-.13.14-.2.35-.2.63v4.03c0,.2-.04.35-.11.44-.07.09-.2.16-.38.23-.76.3-1.72.45-2.88.45-1.08,0-2.05-.24-2.9-.72s-1.51-1.16-1.98-2.03c-.47-.87-.7-1.86-.7-2.96s.23-2.09.69-2.96c.46-.87,1.13-1.55,2.01-2.04.88-.49,1.92-.74,3.12-.74.98,0,1.9.12,2.76.36.86.24,1.69.59,2.51,1.05.22.14.43.21.61.21.25,0,.48-.17.7-.51l1.72-2.65c.16-.22.25-.42.25-.6,0-.26-.18-.51-.55-.75-1.1-.74-2.34-1.32-3.72-1.74-1.38-.42-2.82-.63-4.33-.63-2.27,0-4.29.47-6.08,1.4-1.79.93-3.18,2.24-4.18,3.92-1,1.68-1.5,3.63-1.5,5.83s.49,4,1.49,5.62c.99,1.62,2.36,2.88,4.11,3.77,1.75.89,3.71,1.34,5.9,1.34,1.53,0,3-.18,4.4-.53,1.4-.35,2.77-.86,4.12-1.52.29-.16.48-.33.6-.51.11-.18.17-.43.17-.75v-7.01c0-.28-.07-.49-.2-.63-.13-.14-.34-.21-.63-.21Z" fill="#ffeeeb"/>
    <path d="M166.44,303.86c-1.76-.93-3.75-1.4-5.97-1.4s-4.19.47-5.94,1.41c-1.76.94-3.13,2.24-4.12,3.91-.99,1.66-1.49,3.56-1.49,5.68s.49,3.98,1.49,5.64c.99,1.65,2.36,2.94,4.11,3.86,1.75.92,3.71,1.38,5.9,1.38s4.25-.47,6.02-1.4c1.77-.93,3.15-2.23,4.14-3.88.99-1.65,1.49-3.54,1.49-5.67s-.5-3.99-1.49-5.65c-.99-1.66-2.36-2.96-4.12-3.89ZM165.3,316.42c-.49.86-1.16,1.53-2.02,2-.86.47-1.81.71-2.85.71s-1.98-.23-2.82-.71c-.84-.47-1.5-1.14-1.98-2-.48-.86-.72-1.85-.72-2.98s.24-2.14.72-3.01c.48-.86,1.14-1.53,1.98-2,.84-.47,1.79-.71,2.85-.71s1.99.24,2.83.71c.85.47,1.52,1.14,2.01,2,.49.86.74,1.86.74,3.01s-.25,2.11-.74,2.98Z" fill="#ffeeeb"/>
    <path d="M196.46,302.56c-.18,0-.37.06-.55.2-.18.13-.45.37-.8.71l-8.85,9.23-8.88-9.23c-.31-.32-.56-.55-.77-.69-.2-.14-.4-.21-.58-.21-.51,0-.77.39-.77,1.17v19.39c0,.28.07.49.2.62s.34.2.63.2h4.14c.31,0,.53-.06.66-.2.13-.13.2-.34.2-.62v-8.33l4.01,4.36c.27.3.48.51.64.62s.33.17.49.17.33-.06.49-.17c.16-.11.39-.32.67-.62l4.01-4.36v8.33c0,.54.29.81.86.81h4.14c.57,0,.86-.27.86-.81v-19.39c0-.78-.27-1.17-.8-1.17Z" fill="#ffeeeb"/>
  </g>
  <g>
    <path d="M58.65,329.39h-4.2c-.29,0-.5.07-.63.2-.13.13-.2.34-.2.63v9.63l-10.99-9.84c-.41-.37-.75-.64-1-.8-.26-.17-.49-.25-.69-.25-.51,0-.77.42-.77,1.27v19.94c0,.29.07.5.2.63s.34.2.63.2h4.17c.31,0,.53-.07.66-.2.13-.13.2-.34.2-.63v-9.63l10.99,9.85c.41.39.74.66.99.82.25.15.48.23.71.23.51,0,.77-.42.77-1.26v-19.94c0-.56-.28-.83-.83-.83Z" fill="#ffeeeb"/>
    <path d="M77.85,345.9h-7.69c-.21,0-.34-.04-.4-.11-.06-.07-.09-.2-.09-.39v-2.25c0-.19.03-.31.09-.39.06-.07.2-.11.4-.11h6.64c.29,0,.5-.07.63-.2s.2-.34.2-.63v-3.36c0-.29-.07-.5-.2-.65-.13-.14-.34-.22-.63-.22h-6.64c-.21,0-.34-.03-.4-.09-.06-.06-.09-.18-.09-.37v-2.16c0-.19.03-.31.09-.39.06-.07.2-.11.4-.11h7.65c.31,0,.53-.06.66-.19.13-.12.2-.34.2-.65v-3.43c0-.56-.29-.83-.86-.83h-13.18c-.29,0-.5.07-.63.2s-.2.34-.2.63v19.94c0,.29.07.5.2.63s.34.2.63.2h13.21c.58,0,.86-.28.86-.83v-3.43c0-.31-.07-.53-.2-.65-.13-.12-.35-.19-.66-.19Z" fill="#ffeeeb"/>
    <path d="M97.48,329.39h-16.17c-.56,0-.83.28-.83.83v3.67c0,.55.28.83.83.83h4.66c.19,0,.31.04.39.11.07.07.11.2.11.39v14.94c0,.29.07.5.2.63s.34.2.63.2h4.2c.29,0,.5-.07.63-.2.13-.13.2-.34.2-.63v-14.94c0-.19.04-.31.11-.39.07-.07.2-.11.39-.11h4.66c.29,0,.5-.07.63-.2.13-.13.2-.34.2-.63v-3.67c0-.29-.07-.5-.2-.63-.13-.13-.34-.2-.63-.2Z" fill="#ffeeeb"/>
    <path d="M129.57,329.39h-4.38c-.41,0-.71.06-.88.19-.18.12-.34.38-.51.77l-3.52,8.95-3.95-8.55c-.27-.54-.48-.89-.63-1.08s-.34-.28-.57-.28-.42.09-.59.28c-.17.19-.38.54-.65,1.08l-3.98,8.61-3.55-9.01c-.17-.41-.33-.67-.51-.79-.18-.11-.46-.17-.85-.17h-4.38c-.51,0-.77.15-.77.46,0,.12.05.31.15.55l8.18,19.51c.27.64.49,1.06.66,1.28.17.22.38.32.6.32.21,0,.39-.1.56-.31.16-.21.39-.61.68-1.2l4.41-9.41,4.41,9.41c.31.62.54,1.02.69,1.22s.33.29.54.29c.23,0,.43-.11.6-.32.17-.22.4-.64.66-1.28l8.18-19.51c.08-.18.12-.36.12-.52,0-.33-.25-.49-.74-.49Z" fill="#ffeeeb"/>
    <path d="M148.74,330.4c-1.77-.96-3.78-1.44-6.02-1.44s-4.22.48-5.99,1.45c-1.77.97-3.15,2.3-4.15,4.01-1,1.71-1.5,3.65-1.5,5.83s.5,4.09,1.5,5.79c1,1.7,2.38,3.02,4.14,3.97,1.76.95,3.74,1.42,5.94,1.42s4.28-.48,6.06-1.43c1.78-.96,3.17-2.28,4.17-3.98s1.5-3.64,1.5-5.82-.5-4.09-1.5-5.8c-1-1.71-2.38-3.04-4.15-4ZM147.6,343.28c-.49.88-1.17,1.57-2.04,2.05-.86.48-1.82.72-2.87.72s-2-.24-2.84-.72c-.84-.48-1.51-1.17-1.99-2.05s-.73-1.9-.73-3.06.24-2.2.73-3.09,1.15-1.57,1.99-2.05c.84-.48,1.8-.72,2.87-.72s2,.24,2.85.72c.85.48,1.53,1.17,2.02,2.05s.74,1.91.74,3.09-.25,2.17-.74,3.06Z" fill="#ffeeeb"/>
    <path d="M172.07,342.26c2.37-1.15,3.55-3.01,3.55-5.59s-.8-4.33-2.41-5.51c-1.6-1.18-4.05-1.78-7.35-1.78h-7.41c-.29,0-.5.07-.63.2s-.2.34-.2.63v19.94c0,.29.07.5.2.63s.34.2.63.2h4.17c.31,0,.53-.07.66-.2.13-.13.2-.34.2-.63v-15.34c0-.21.03-.34.09-.4.06-.06.2-.09.4-.09h1.57c1.34,0,2.34.24,3.01.73s1,1.24,1,2.27c0,.97-.35,1.72-1.05,2.27-.7.55-1.62.89-2.75,1.03-.43.08-.65.24-.65.46,0,.1.05.26.15.46l4.78,8.49c.23.39.45.65.66.77.22.12.55.19,1,.19h4.41c.51,0,.77-.15.77-.46,0-.14-.06-.32-.19-.52l-4.66-7.75Z" fill="#ffeeeb"/>
    <path d="M199.14,350.07l-7.19-10.15,6.91-9.6c.12-.19.19-.35.19-.49,0-.12-.06-.23-.17-.31s-.28-.12-.51-.12h-4.81c-.41,0-.72.06-.91.17-.2.11-.41.34-.63.69l-6.17,9.07c-.21.29-.31.56-.31.8,0,.18.09.42.28.71l6.33,9.32c.23.35.44.58.63.68.2.1.51.15.94.15h4.94c.23,0,.4-.04.52-.11.12-.07.19-.17.19-.29,0-.14-.07-.32-.22-.52Z" fill="#ffeeeb"/>
    <path d="M184.17,329.39h-4.17c-.29,0-.5.07-.63.2s-.2.34-.2.63v19.94c0,.29.07.5.2.63s.34.2.63.2h4.17c.31,0,.53-.07.66-.2.13-.13.2-.34.2-.63v-19.94c0-.29-.07-.5-.2-.63-.13-.13-.35-.2-.66-.2Z" fill="#ffeeeb"/>
  </g>
</svg>
